<svg width="33" height="32" viewBox="0 0 33 32" fill="none" xmlns="http://www.w3.org/2000/svg">
<path d="M32.0807 27.2529L23.3437 4.96528C23.1364 4.44568 22.9425 4.14436 22.7568 4.0616C22.6533 4.02062 22.2938 4 21.6767 4H18.0647C17.2627 4 16.748 4.29998 16.5214 4.90288L7.75303 27.2529C7.64916 27.5236 7.59837 27.7202 7.59837 27.8443C7.59837 27.9488 7.72129 28 7.96909 28H12.1997C12.5489 28 12.7863 27.8556 12.9094 27.5655L13.0625 27.1754H13.05L13.7404 25.4495L14.5018 23.5075C14.5064 23.5018 14.5164 23.504 14.5212 23.4995L19.8476 10.1937L19.8532 10.2063L19.8702 10.1653L23.2471 18.5248H23.2235L25.2056 23.4188L26.8906 27.5669C26.993 27.8556 27.2193 28 27.5698 28H31.9886C32.2361 28 32.2656 27.7509 32.0807 27.2529Z" fill="#00287B"/>
<path d="M0.200012 17.8777C9.93065 22.9309 17.2856 21.2365 26.0362 15.0113C30.6407 11.7364 33.1535 17.1899 28.5829 20.0508C18.903 26.1067 9.31576 24.3762 0.200012 17.8777Z" fill="#00BBFF"/>
</svg>
