<svg width="137" height="40" viewBox="0 0 137 40" fill="none" xmlns="http://www.w3.org/2000/svg">
<path d="M42.8356 29.8533L35.1458 10.4221C34.9635 9.96905 34.7928 9.70635 34.6293 9.6342C34.5382 9.59847 34.2218 9.58049 33.6787 9.58049H30.4997C29.7938 9.58049 29.3407 9.84202 29.1413 10.3677L21.424 29.8533C21.3325 30.0894 21.2878 30.2608 21.2878 30.369C21.2878 30.4601 21.396 30.5047 21.6141 30.5047H25.3377C25.645 30.5047 25.8539 30.3788 25.9623 30.1259L26.097 29.7858H26.0861L26.6937 28.281L27.3638 26.588C27.3678 26.583 27.3767 26.5849 27.3809 26.581L32.0689 14.9804L32.0738 14.9914L32.0887 14.9557L35.0608 22.2439H35.0401L36.7846 26.5107L38.2676 30.1271C38.3578 30.3788 38.557 30.5047 38.8654 30.5047H42.7546C42.9724 30.5047 42.9984 30.2875 42.8356 29.8533Z" fill="#00287B"/>
<path d="M15.2819 18.5608L8.65169 17.1096C7.28264 16.6348 6.5967 16.0132 6.5967 15.2468C6.5967 14.2782 7.28264 13.7946 8.65169 13.7946H18.3766C19.6378 13.7946 20.2682 13.174 20.2682 11.9319V9.87678C20.2682 9.58536 20.1304 9.43848 19.8568 9.43848H8.43261C6.36767 9.43848 4.67936 9.9501 3.36404 10.9722C1.92156 12.0863 1.19995 13.6468 1.19995 15.6552C1.19995 18.6314 3.13691 20.5574 7.00901 21.4339L13.4191 22.8929C14.9348 23.239 15.6922 23.8596 15.6922 24.7537C15.6922 25.7212 14.9348 26.2051 13.4191 26.2051H3.25494C2.17723 26.2051 1.63806 26.7621 1.63806 27.8754V30.123C1.63806 30.4144 1.76585 30.5611 2.02271 30.5611H13.0077C15.2541 30.5611 17.0534 30.1316 18.4045 29.2731C20.0481 28.2323 20.8708 26.6612 20.8708 24.5603C20.8708 21.3821 19.0084 19.3828 15.2819 18.5608Z" fill="#00287B"/>
<path d="M58.8889 17.028C58.7598 17.9224 58.2909 18.5251 57.4841 18.8352C57.0052 19.0185 56.1883 19.1086 55.0306 19.1086H49.6561V13.7406H54.9977C56.1129 13.7406 56.9337 13.8408 57.464 14.0421C58.2848 14.3522 58.7429 14.9551 58.8343 15.8493H58.8618C58.8786 16.1061 58.8889 16.2696 58.8889 16.342V17.028ZM64.45 16.5204C64.45 11.8364 61.6831 9.494 56.1493 9.494H46.0133C44.9347 9.494 44.3962 10.032 44.3962 11.1097V30.3426C44.3962 30.4885 44.4964 30.5606 44.6986 30.5606H48.0404C49.1181 30.5606 49.6561 30.0233 49.6561 28.944V23.5202H56.1493C61.6831 23.5202 64.45 21.1876 64.45 16.5204Z" fill="#00287B"/>
<path d="M71.1407 9.93282C71.1407 9.60357 71.013 9.43918 70.7573 9.43918H67.1409C66.7206 9.43918 66.446 9.53142 66.3189 9.71379C66.191 9.89593 66.1277 10.2163 66.1277 10.6721V29.3837C66.1277 29.8763 66.1952 30.1956 66.3327 30.3422C66.4696 30.4892 66.7759 30.5606 67.2506 30.5606H70.7015C70.9952 30.5606 71.1407 30.4148 71.1407 30.1234V9.93282Z" fill="#00287B"/>
<path d="M89.4475 9.8503C89.4475 9.57569 89.3464 9.43885 89.146 9.43885H75.1197C74.1691 9.43885 73.6941 9.99694 73.6941 11.1103V30.0407C73.6941 30.3878 73.8596 30.5611 74.1877 30.5611H89.0636C89.3008 30.5611 89.4197 30.3878 89.4197 30.0407V27.821C89.4197 27.1826 89.3742 26.7801 89.2819 26.6158C89.136 26.3421 88.7792 26.2052 88.2113 26.2052H78.3781V22.096H87.308C87.5848 22.096 87.7214 21.9583 87.7214 21.6847V18.4531C87.7214 18.0683 87.5191 17.8761 87.1156 17.8761H78.3781V13.7123H88.1279C88.696 13.7123 89.0577 13.6579 89.2135 13.5489C89.369 13.4387 89.4475 13.1185 89.4475 12.5892V9.8503Z" fill="#00287B"/>
<path d="M110.666 9.90479C110.666 9.59446 110.557 9.43894 110.339 9.43894H107.078C106.346 9.43894 105.983 9.95944 105.983 11.0002V22.2589L97.0784 9.71261C96.9516 9.53024 96.786 9.43894 96.5857 9.43894H92.9137C92.1287 9.43894 91.7371 9.95944 91.7371 11.0002V29.9309C91.7371 30.2047 91.7459 30.3601 91.7639 30.3969C91.8183 30.5059 91.9638 30.5616 92.202 30.5616H95.1335C95.7182 30.5616 96.0918 30.4325 96.2567 30.1769C96.4033 29.9945 96.4755 29.5918 96.4755 28.9713V17.1002L105.791 30.3682C105.864 30.4969 106.047 30.5616 106.339 30.5616H109.626C110.174 30.5616 110.492 30.4236 110.584 30.1499C110.639 30.0409 110.666 29.6396 110.666 28.9446V9.90479Z" fill="#00287B"/>
<path d="M126.611 18.5608L119.981 17.1096C118.612 16.6348 117.927 16.0132 117.927 15.2468C117.927 14.2782 118.612 13.7946 119.981 13.7946H129.707C130.967 13.7946 131.598 13.174 131.598 11.9319V9.87678C131.598 9.58536 131.461 9.43848 131.186 9.43848H119.762C117.698 9.43848 116.009 9.9501 114.693 10.9722C113.251 12.0863 112.529 13.6468 112.529 15.6552C112.529 18.6314 114.466 20.5574 118.34 21.4339L124.748 22.8929C126.264 23.239 127.023 23.8596 127.023 24.7537C127.023 25.7212 126.264 26.2051 124.748 26.2051H114.585C113.508 26.2051 112.968 26.7621 112.968 27.8754V30.123C112.968 30.4144 113.095 30.5611 113.352 30.5611H124.337C126.584 30.5611 128.383 30.1316 129.734 29.2731C131.378 28.2323 132.201 26.6612 132.201 24.5603C132.201 21.3821 130.338 19.3828 126.611 18.5608Z" fill="#00287B"/>
<path d="M14.7763 21.6796C23.3406 26.0852 29.8139 24.608 37.5156 19.1806C41.5682 16.3254 43.7798 21.08 39.7571 23.5742C31.2374 28.8541 22.7994 27.3453 14.7763 21.6796Z" fill="#00BBFF"/>
</svg>
