<svg xmlns="http://www.w3.org/2000/svg" viewBox="0 0 48 48">
    <g data-name="07-funny glasses">
        <path d="M47 10v4h-3l-.21-.05a9.159 9.159 0 0 0 0-3.9L44 10zM4 12a8.963 8.963 0 0 0 .21 1.95L4 14H1v-4h3l.21.05A8.963 8.963 0 0 0 4 12zM26 12a8.1 8.1 0 0 0 .06.99L26 13h-4l-.06-.01A8.1 8.1 0 0 0 22 12a8.8 8.8 0 0 0-.52-3h5.04a8.8 8.8 0 0 0-.52 3z"
              style="fill:#d2a0f5"/>
        <path d="M31.29 33.28A4.017 4.017 0 0 1 29 34a3.937 3.937 0 0 1-1.61-.34 4.958 4.958 0 0 1-6.78 0A3.937 3.937 0 0 1 19 34a4 4 0 0 1-4-4c0-3 3.79-4 6-4l1-13h4l1 13c2.21 0 6 1 6 4a4 4 0 0 1-1.71 3.28z"
              style="fill:#ffcdbe"/>
        <path d="M38 39a7.943 7.943 0 0 0 7-4c0 5.53-5 10-11.01 10-5.04 0-8.42-1.72-9.99-4.65-1.57 2.93-4.95 4.65-9.99 4.65C8 45 3 40.53 3 35a7.943 7.943 0 0 0 7 4 5.376 5.376 0 0 0 2.85-1 5.982 5.982 0 0 0 2.35-3.38c.14-.48 1-.93 1.51-1.34A4.017 4.017 0 0 0 19 34a3.937 3.937 0 0 0 1.61-.34 4.958 4.958 0 0 0 6.78 0A3.937 3.937 0 0 0 29 34a4.017 4.017 0 0 0 2.29-.72c.51.41 1.37.86 1.51 1.34A5.982 5.982 0 0 0 35.15 38 5.376 5.376 0 0 0 38 39z"
              style="fill:#414952"/>
        <path d="M16.71 35.28A4.017 4.017 0 0 0 19 36a3.937 3.937 0 0 0 1.61-.34 4.958 4.958 0 0 0 6.78 0A3.937 3.937 0 0 0 29 36a3.966 3.966 0 0 0 3.4-1.9c-.332-.286-.789-.559-1.109-.816A4.017 4.017 0 0 1 29 34a3.937 3.937 0 0 1-1.61-.34 4.958 4.958 0 0 1-6.78 0A3.937 3.937 0 0 1 19 34a4.017 4.017 0 0 1-2.29-.72c-.32.257-.777.53-1.109.817a4.027 4.027 0 0 0 1.109 1.183z"
              style="fill:#333940"/>
        <path d="M43.79 10.05a9 9 0 1 1-17.73 2.94A8.1 8.1 0 0 1 26 12a8.8 8.8 0 0 1 .52-3 9 9 0 0 1 17.27 1.05z"
              style="fill:#ffa1c8"/>
        <circle cx="35" cy="12" r="8" style="fill:#ff8fb8"/>
        <circle cx="35" cy="12" r="7" style="fill:#d261e8"/>
        <circle cx="35" cy="12" r="6" style="fill:#d2a0f5"/>
        <path d="M44 12a8.994 8.994 0 0 0-14.937-6.757c.036.415.1.822.167 1.225a7.994 7.994 0 1 1 11.3 11.3c.405.072.814.131 1.231.168A8.936 8.936 0 0 0 44 12z"
              style="fill:#ffcfe2"/>
        <path d="M35 5a7 7 0 0 1 4.325 12.5c.4.108.8.2 1.207.273a7.994 7.994 0 1 0-11.3-11.3c.073.409.165.811.273 1.207A6.981 6.981 0 0 1 35 5z"
              style="fill:#ffa1c8"/>
        <path d="M42 12a7 7 0 0 0-12.5-4.325q.166.612.385 1.2a5.994 5.994 0 1 1 8.238 8.238q.588.219 1.2.385A6.981 6.981 0 0 0 42 12z"
              style="fill:#de78f0"/>
        <path d="M38.126 17.112a5.994 5.994 0 1 0-8.238-8.238 14 14 0 0 0 8.238 8.238z" style="fill:#e0b8ff"/>
        <path d="M21.79 10.05a9 9 0 1 1-17.73 2.94A8.1 8.1 0 0 1 4 12a8.8 8.8 0 0 1 .52-3 9 9 0 0 1 17.27 1.05z"
              style="fill:#ffa1c8"/>
        <circle cx="13" cy="12" r="8" style="fill:#ff8fb8"/>
        <circle cx="13" cy="12" r="7" style="fill:#d261e8"/>
        <circle cx="13" cy="12" r="6" style="fill:#d2a0f5"/>
        <path d="M22 12A8.994 8.994 0 0 0 7.063 5.243c.036.415.1.822.167 1.225a7.994 7.994 0 1 1 11.3 11.3c.405.072.814.131 1.231.168A8.936 8.936 0 0 0 22 12z"
              style="fill:#ffcfe2"/>
        <path d="M13 5a7 7 0 0 1 4.325 12.5c.4.108.8.2 1.207.273a7.994 7.994 0 1 0-11.3-11.3c.073.409.165.811.273 1.207A6.981 6.981 0 0 1 13 5z"
              style="fill:#ffa1c8"/>
        <path d="M20 12A7 7 0 0 0 7.5 7.675q.166.612.385 1.2a5.994 5.994 0 1 1 8.238 8.238q.588.219 1.2.385A6.981 6.981 0 0 0 20 12z"
              style="fill:#de78f0"/>
        <path d="M16.126 17.112a5.994 5.994 0 1 0-8.238-8.238 14 14 0 0 0 8.238 8.238z" style="fill:#e0b8ff"/>
        <path d="M26.52 9h-5.04a8.723 8.723 0 0 1 .458 2h4.124a8.723 8.723 0 0 1 .458-2z" style="fill:#b674f2"/>
        <path d="M26.062 11h-4.124A8.933 8.933 0 0 1 22 12a8.1 8.1 0 0 1-.06.99L22 13h4l.06-.01A8.1 8.1 0 0 1 26 12a8.933 8.933 0 0 1 .062-1z"
              style="fill:#a260e5"/>
        <path d="M47 10h-3l-.21.05A8.963 8.963 0 0 1 44 12h3z" style="fill:#b674f2"/>
        <path d="M44 12a8.963 8.963 0 0 1-.21 1.95L44 14h3v-2zM1 14h3l.21-.05A8.963 8.963 0 0 1 4 12H1z"
              style="fill:#a260e5"/>
        <path d="M4 10H1v2h3a8.963 8.963 0 0 1 .21-1.95z" style="fill:#b674f2"/>
        <path d="M20.61 31.66A3.937 3.937 0 0 1 19 32a3.992 3.992 0 0 1-3.855-2.944A3.165 3.165 0 0 0 15 30a4 4 0 0 0 4 4 3.937 3.937 0 0 0 1.61-.34A5 5 0 0 0 24 35v-2a5 5 0 0 1-3.39-1.34z"
              style="fill:#faa68e"/>
        <path d="M31.29 31.28A4.017 4.017 0 0 1 29 32a3.937 3.937 0 0 1-1.61-.34A5 5 0 0 1 24 33v2a5 5 0 0 0 3.39-1.34A3.937 3.937 0 0 0 29 34a4 4 0 0 0 4-4 3.165 3.165 0 0 0-.145-.944 4 4 0 0 1-1.565 2.224zM16.71 31.28A4.017 4.017 0 0 0 19 32a3.937 3.937 0 0 0 1.61-.34A5 5 0 0 0 24 33V13h-2l-1 13c-1.959 0-5.153.789-5.855 3.056a4 4 0 0 0 1.565 2.224z"
              style="fill:#ffbeaa"/>
        <path style="fill:#faa68e" d="M26.154 15 26 13h-2v2h2.154z"/>
        <path style="fill:#e09380" d="M24 13h-2l-.154 2H24v-2z"/>
        <ellipse cx="37.003" cy="13.987" rx="1.642" ry="2.286" transform="rotate(-45.02 37.002 13.987)"
                 style="fill:#f6fafd"/>
        <ellipse cx="15.003" cy="13.987" rx="1.642" ry="2.286" transform="rotate(-45.02 15.002 13.987)"
                 style="fill:#f6fafd"/>
        <ellipse cx="39" cy="11" rx=".825" ry="1.148" transform="rotate(-45.02 39 11)" style="fill:#f6fafd"/>
        <ellipse cx="17" cy="11" rx=".825" ry="1.148" transform="rotate(-45.02 17 11)" style="fill:#f6fafd"/>
        <path d="M43.7 36.694A11.249 11.249 0 0 1 33.99 42c-5.04 0-8.42-1.72-9.99-4.65-1.57 2.93-4.95 4.65-9.99 4.65a11.249 11.249 0 0 1-9.71-5.306A7.341 7.341 0 0 1 3 35c0 5.53 5 10 11.01 10 5.04 0 8.42-1.72 9.99-4.65 1.57 2.93 4.95 4.65 9.99 4.65C40 45 45 40.53 45 35a7.341 7.341 0 0 1-1.3 1.694z"
              style="fill:#333940"/>
        <path d="M35 5a7 7 0 1 0 7 7 7.008 7.008 0 0 0-7-7zm0 12a5 5 0 1 1 5-5 5.006 5.006 0 0 1-5 5z"/>
        <path d="M47 9h-2.473a9.974 9.974 0 0 0-.567-1.445l-1.791.89A7.926 7.926 0 0 1 43 12a8 8 0 1 1-1.348-4.445l1.662-1.114A10 10 0 0 0 25.841 8h-3.682a10 10 0 0 0-18.7 1H1a1 1 0 0 0-1 1v4a1 1 0 0 0 1 1h2.469a9.983 9.983 0 0 0 2.077 3.667l1.491-1.334a7.992 7.992 0 1 1 .94.894L6.72 19.783a9.982 9.982 0 0 0 13.853-1.271l-.5 6.533C17.35 25.307 14 26.718 14 30a4.952 4.952 0 0 0 1.163 3.166 2.4 2.4 0 0 0-.925 1.176 5 5 0 0 1-1.938 2.822A4.326 4.326 0 0 1 10 38a6.9 6.9 0 0 1-6.1-3.447A1 1 0 0 0 2 35c0 6.065 5.386 11 12.005 11 5.464 0 8.409-1.873 9.995-3.846C25.586 44.127 28.531 46 33.995 46 40.614 46 46 41.065 46 35a1 1 0 0 0-1.9-.447 6.9 6.9 0 0 1-3.467 2.971l.723 1.865a8.789 8.789 0 0 0 1.92-1.037A10.072 10.072 0 0 1 33.995 44c-4.52 0-7.671-1.426-9.113-4.124a1.041 1.041 0 0 0-1.764 0C21.676 42.574 18.525 44 14.005 44a10.072 10.072 0 0 1-9.28-5.636A8.907 8.907 0 0 0 10 40a6.28 6.28 0 0 0 3.4-1.17 6.85 6.85 0 0 0 2.724-3.851 3.8 3.8 0 0 1 .659-.52 4.864 4.864 0 0 0 3.63.335 5.934 5.934 0 0 0 7.172 0 4.861 4.861 0 0 0 3.629-.335c.224.156.579.4.625.435A6.985 6.985 0 0 0 34.6 38.83 6.28 6.28 0 0 0 38 40a9.987 9.987 0 0 0 1.116-.062l-.224-1.987A7.986 7.986 0 0 1 38 38a4.326 4.326 0 0 1-2.292-.836 5 5 0 0 1-1.943-2.823 2.4 2.4 0 0 0-.926-1.174A4.948 4.948 0 0 0 34 30c0-3.282-3.35-4.693-6.07-4.955l-.087-1.122-1.994.154.154 2A1 1 0 0 0 27 27c1.631 0 5 .733 5 3a2.992 2.992 0 0 1-4.208 2.742 1 1 0 0 0-1.084.182 4.043 4.043 0 0 1-5.416 0 1 1 0 0 0-1.084-.182A2.992 2.992 0 0 1 16 30c0-2.267 3.369-3 5-3a1 1 0 0 0 1-.923L22.926 14h2.148l.621 8.077 1.994-.154-.262-3.411A9.986 9.986 0 0 0 44.539 15H47a1 1 0 0 0 1-1v-4a1 1 0 0 0-1-1zM2 13v-2h1.051A10.007 10.007 0 0 0 3 12c0 .336.02.669.053 1zm21-1a9.983 9.983 0 0 0-.2-2h2.4a9.983 9.983 0 0 0-.2 2zm23 1h-1.051A10.007 10.007 0 0 0 45 12c0-.337-.024-.669-.057-1H46z"/>
        <path d="M20 12a7 7 0 1 0-7 7 7.008 7.008 0 0 0 7-7zM8 12a5 5 0 1 1 5 5 5.006 5.006 0 0 1-5-5z"/>
    </g>
</svg>