<svg width="218" height="64" viewBox="0 0 218 64" fill="none" xmlns="http://www.w3.org/2000/svg">
<path d="M68.417 47.7653L56.1133 16.6753C55.8215 15.9505 55.5484 15.5302 55.2869 15.4147C55.1412 15.3576 54.6349 15.3288 53.7659 15.3288H48.6795C47.55 15.3288 46.8252 15.7472 46.5061 16.5883L34.1583 47.7653C34.0121 48.143 33.9405 48.4172 33.9405 48.5903C33.9405 48.7361 34.1136 48.8075 34.4626 48.8075H40.4202C40.9119 48.8075 41.2463 48.6061 41.4197 48.2014L41.6353 47.6573H41.6177L42.5898 45.2497L43.6621 42.5408C43.6685 42.5328 43.6827 42.5358 43.6894 42.5295L51.1902 23.9687L51.198 23.9863L51.2219 23.9291L55.9773 35.5902H55.9441L58.7354 42.417L61.1082 48.2033C61.2524 48.6061 61.5711 48.8075 62.0647 48.8075H68.2873C68.6359 48.8075 68.6774 48.46 68.417 47.7653Z" fill="#00287B"/>
<path d="M24.331 29.6973L13.7227 27.3753C11.5322 26.6157 10.4347 25.6212 10.4347 24.3949C10.4347 22.8452 11.5322 22.0714 13.7227 22.0714H29.2826C31.3004 22.0714 32.3091 21.0783 32.3091 19.0911V15.8028C32.3091 15.3366 32.0887 15.1016 31.6509 15.1016H13.3722C10.0683 15.1016 7.36698 15.9202 5.26246 17.5555C2.95449 19.338 1.79993 21.8349 1.79993 25.0484C1.79993 29.8102 4.89906 32.8918 11.0944 34.2942L21.3505 36.6286C23.7757 37.1825 24.9875 38.1753 24.9875 39.6059C24.9875 41.1539 23.7757 41.9282 21.3505 41.9282H5.08791C3.36358 41.9282 2.5009 42.8193 2.5009 44.6007V48.1968C2.5009 48.6631 2.70537 48.8978 3.11635 48.8978H20.6923C24.2865 48.8978 27.1654 48.2106 29.3271 46.837C31.9569 45.1716 33.2733 42.6579 33.2733 39.2965C33.2733 34.2113 30.2934 31.0125 24.331 29.6973Z" fill="#00287B"/>
<path d="M94.1022 27.2448C93.8956 28.6758 93.1454 29.6401 91.8545 30.1363C91.0882 30.4295 89.7813 30.5738 87.9289 30.5738H79.3297V21.985H87.8762C89.6606 21.985 90.9739 22.1453 91.8224 22.4674C93.1357 22.9635 93.8687 23.9282 94.0148 25.3588H94.0589C94.0858 25.7698 94.1022 26.0313 94.1022 26.1471V27.2448ZM103 26.4326C103 18.9382 98.5729 15.1904 89.7189 15.1904H73.5013C71.7755 15.1904 70.914 16.0512 70.914 17.7755V48.5482C70.914 48.7815 71.0743 48.897 71.3978 48.897H76.7447C78.4689 48.897 79.3297 48.0374 79.3297 46.3104V37.6324H89.7189C98.5729 37.6324 103 33.9001 103 26.4326Z" fill="#00287B"/>
<path d="M113.705 15.8925C113.705 15.3657 113.501 15.1027 113.092 15.1027H107.305C106.633 15.1027 106.194 15.2503 105.99 15.5421C105.786 15.8335 105.684 16.3461 105.684 17.0754V47.014C105.684 47.8021 105.792 48.3129 106.012 48.5476C106.231 48.7827 106.721 48.897 107.481 48.897H113.002C113.472 48.897 113.705 48.6636 113.705 48.1974V15.8925Z" fill="#00287B"/>
<path d="M142.996 15.7605C142.996 15.3211 142.834 15.1022 142.514 15.1022H120.071C118.55 15.1022 117.791 15.9951 117.791 17.7765V48.0652C117.791 48.6205 118.055 48.8978 118.58 48.8978H142.382C142.761 48.8978 142.951 48.6205 142.951 48.0652V44.5136C142.951 43.4921 142.879 42.8482 142.731 42.5852C142.498 42.1474 141.927 41.9283 141.018 41.9283H125.285V35.3536H139.573C140.016 35.3536 140.234 35.1333 140.234 34.6954V29.5249C140.234 28.9092 139.911 28.6017 139.265 28.6017H125.285V21.9397H140.885C141.794 21.9397 142.372 21.8527 142.622 21.6782C142.87 21.5019 142.996 20.9896 142.996 20.1426V15.7605Z" fill="#00287B"/>
<path d="M176.946 15.8477C176.946 15.3511 176.772 15.1023 176.422 15.1023H171.205C170.034 15.1023 169.452 15.9351 169.452 17.6003V35.6142L155.205 15.5402C155.003 15.2484 154.738 15.1023 154.417 15.1023H148.542C147.286 15.1023 146.659 15.9351 146.659 17.6003V47.8895C146.659 48.3275 146.673 48.5761 146.702 48.635C146.789 48.8094 147.022 48.8985 147.403 48.8985H152.094C153.029 48.8985 153.627 48.692 153.891 48.283C154.125 47.9912 154.241 47.3469 154.241 46.354V27.3603L169.146 48.5891C169.262 48.7951 169.555 48.8985 170.023 48.8985H175.281C176.158 48.8985 176.668 48.6777 176.815 48.2399C176.902 48.0654 176.946 47.4233 176.946 46.3114V15.8477Z" fill="#00287B"/>
<path d="M202.458 29.6973L191.85 27.3753C189.659 26.6157 188.563 25.6212 188.563 24.3949C188.563 22.8452 189.659 22.0714 191.85 22.0714H207.412C209.428 22.0714 210.436 21.0783 210.436 19.0911V15.8028C210.436 15.3366 210.217 15.1016 209.778 15.1016H191.499C188.197 15.1016 185.494 15.9202 183.39 17.5555C181.082 19.338 179.926 21.8349 179.926 25.0484C179.926 29.8102 183.026 32.8918 189.223 34.2942L199.478 36.6286C201.903 37.1825 203.116 38.1753 203.116 39.6059C203.116 41.1539 201.903 41.9282 199.478 41.9282H183.217C181.492 41.9282 180.628 42.8193 180.628 44.6007V48.1968C180.628 48.6631 180.832 48.8978 181.243 48.8978H198.82C202.414 48.8978 205.293 48.2106 207.454 46.837C210.084 45.1716 211.401 42.6579 211.401 39.2965C211.401 34.2113 208.42 31.0125 202.458 29.6973Z" fill="#00287B"/>
<path d="M23.522 34.6874C37.2249 41.7364 47.5823 39.3728 59.905 30.6889C66.3891 26.1207 69.9277 33.7279 63.4913 37.7188C49.8599 46.1665 36.359 43.7525 23.522 34.6874Z" fill="#00BBFF"/>
</svg>
